<mxfile host="app.diagrams.net" modified="2022-11-02T18:26:41.466Z" agent="5.0 (Windows NT 10.0; Win64; x64) AppleWebKit/537.36 (KHTML, like Gecko) Chrome/107.0.0.0 Safari/537.36" etag="D3XA8HMwBiCUkS7NUdcZ" version="20.5.1" type="github">
  <diagram name="Page-1" id="64c3da0e-402f-94eb-ee01-a36477274f13">
    <mxGraphModel dx="2370" dy="2113" grid="1" gridSize="10" guides="1" tooltips="1" connect="1" arrows="1" fold="1" page="1" pageScale="1" pageWidth="1169" pageHeight="826" background="none" math="0" shadow="0">
      <root>
        <mxCell id="0" />
        <mxCell id="1" parent="0" />
        <mxCell id="BHqK-aXvtFynMMr_jnio-22" value="" style="whiteSpace=wrap;rounded=0;fillColor=#999999;strokeColor=default;shadow=0;fontColor=#FFFFFF;fontStyle=1;fontSize=5;labelBackgroundColor=none;glass=0;sketch=0;" vertex="1" parent="1">
          <mxGeometry x="1360" y="300" width="40" height="40" as="geometry" />
        </mxCell>
        <mxCell id="BHqK-aXvtFynMMr_jnio-16" value="М/з №1" style="rounded=0;whiteSpace=wrap;html=1;fontSize=10;" vertex="1" parent="1">
          <mxGeometry x="460" y="300" width="900" height="110" as="geometry" />
        </mxCell>
        <mxCell id="03KjANhIFLuCmbNfHlnq-272" value="2АПМ" style="rounded=0;whiteSpace=wrap;html=1;shadow=0;glass=0;labelBackgroundColor=none;sketch=0;fontSize=10;strokeColor=default;fillColor=#999999;fontColor=#FFFFFF;" parent="1" vertex="1">
          <mxGeometry x="740" y="320" width="50" height="32.5" as="geometry" />
        </mxCell>
        <mxCell id="3" value="ПСУ-1Г" style="whiteSpace=wrap;rounded=0;fillColor=#F2931E;strokeColor=default;shadow=0;fontColor=#FFFFFF;fontStyle=0;fontSize=14" parent="1" vertex="1">
          <mxGeometry x="40" y="610" width="120" height="30" as="geometry" />
        </mxCell>
        <mxCell id="10" value="ПСУ-1Б" style="whiteSpace=wrap;rounded=0;fillColor=#12AAB5;strokeColor=default;shadow=0;fontColor=#FFFFFF;fontSize=10;labelBackgroundColor=none;glass=0;sketch=0;" parent="1" vertex="1">
          <mxGeometry x="590" y="410" width="40" height="30" as="geometry" />
        </mxCell>
        <mxCell id="03KjANhIFLuCmbNfHlnq-235" value="ТП-11" style="whiteSpace=wrap;rounded=0;fillColor=#999999;strokeColor=default;shadow=0;fontColor=#FFFFFF;fontStyle=0;fontSize=10;" parent="1" vertex="1">
          <mxGeometry x="160" y="610" width="40" height="30" as="geometry" />
        </mxCell>
        <mxCell id="03KjANhIFLuCmbNfHlnq-236" value="ПСУ-1А" style="whiteSpace=wrap;rounded=0;fillColor=#F2931E;strokeColor=default;shadow=0;fontColor=#FFFFFF;fontStyle=0;fontSize=10;" parent="1" vertex="1">
          <mxGeometry x="240" y="610" width="40" height="30" as="geometry" />
        </mxCell>
        <mxCell id="03KjANhIFLuCmbNfHlnq-237" value="Насосная СИО" style="whiteSpace=wrap;rounded=0;fillColor=#999999;strokeColor=default;shadow=0;fontColor=#FFFFFF;fontStyle=0;fontSize=7;" parent="1" vertex="1">
          <mxGeometry x="280" y="620" width="40" height="20" as="geometry" />
        </mxCell>
        <mxCell id="03KjANhIFLuCmbNfHlnq-238" value="1ПСУ" style="whiteSpace=wrap;rounded=0;fillColor=#F2931E;strokeColor=default;shadow=0;fontColor=#FFFFFF;fontStyle=0;fontSize=14" parent="1" vertex="1">
          <mxGeometry x="320" y="610" width="80" height="30" as="geometry" />
        </mxCell>
        <mxCell id="03KjANhIFLuCmbNfHlnq-239" value="Склад" style="whiteSpace=wrap;rounded=0;fillColor=#999999;strokeColor=default;shadow=0;fontColor=#FFFFFF;fontStyle=0;fontSize=8;" parent="1" vertex="1">
          <mxGeometry x="400" y="610" width="30" height="30" as="geometry" />
        </mxCell>
        <mxCell id="03KjANhIFLuCmbNfHlnq-240" value="2Б ПУ" style="whiteSpace=wrap;rounded=0;fillColor=#999999;strokeColor=default;shadow=0;fontColor=#FFFFFF;fontStyle=0;fontSize=9;" parent="1" vertex="1">
          <mxGeometry x="200" y="480" width="30" height="20" as="geometry" />
        </mxCell>
        <mxCell id="03KjANhIFLuCmbNfHlnq-241" value="2А ПУ" style="whiteSpace=wrap;rounded=0;fillColor=#999999;strokeColor=default;shadow=0;fontColor=#FFFFFF;fontStyle=0;fontSize=9;" parent="1" vertex="1">
          <mxGeometry x="250" y="480" width="30" height="20" as="geometry" />
        </mxCell>
        <mxCell id="03KjANhIFLuCmbNfHlnq-245" value="ОТК" style="whiteSpace=wrap;rounded=0;fillColor=#999999;strokeColor=default;shadow=0;fontColor=#FFFFFF;fontStyle=0;fontSize=9;" parent="1" vertex="1">
          <mxGeometry x="320" y="480" width="30" height="20" as="geometry" />
        </mxCell>
        <mxCell id="03KjANhIFLuCmbNfHlnq-246" value="2 ПУ" style="whiteSpace=wrap;rounded=0;fillColor=#999999;strokeColor=default;shadow=0;fontColor=#FFFFFF;fontStyle=0;fontSize=9;" parent="1" vertex="1">
          <mxGeometry x="370" y="480" width="30" height="20" as="geometry" />
        </mxCell>
        <mxCell id="03KjANhIFLuCmbNfHlnq-248" value="8ER" style="whiteSpace=wrap;rounded=0;fillColor=#12AAB5;strokeColor=default;shadow=0;fontColor=#FFFFFF;fontSize=10;labelBackgroundColor=none;glass=0;sketch=0;" parent="1" vertex="1">
          <mxGeometry x="650" y="410" width="30" height="30" as="geometry" />
        </mxCell>
        <mxCell id="03KjANhIFLuCmbNfHlnq-249" value="Подстанция 11" style="whiteSpace=wrap;rounded=0;fillColor=#999999;strokeColor=default;shadow=0;fontColor=#FFFFFF;fontStyle=1;fontSize=5;labelBackgroundColor=none;glass=0;sketch=0;" parent="1" vertex="1">
          <mxGeometry x="680" y="410" width="40" height="30" as="geometry" />
        </mxCell>
        <mxCell id="03KjANhIFLuCmbNfHlnq-250" value="3ЕР" style="whiteSpace=wrap;rounded=0;fillColor=#12AAB5;strokeColor=default;shadow=0;fontColor=#FFFFFF;fontSize=10;labelBackgroundColor=none;glass=0;sketch=0;" parent="1" vertex="1">
          <mxGeometry x="720" y="410" width="80" height="30" as="geometry" />
        </mxCell>
        <mxCell id="03KjANhIFLuCmbNfHlnq-254" value="7ER" style="whiteSpace=wrap;rounded=0;fillColor=#12AAB5;strokeColor=default;shadow=1;fontColor=#FFFFFF;fontSize=10;" parent="1" vertex="1">
          <mxGeometry x="720" y="300" width="60" height="30" as="geometry" />
        </mxCell>
        <mxCell id="03KjANhIFLuCmbNfHlnq-255" value="" style="whiteSpace=wrap;rounded=0;fillColor=#999999;strokeColor=default;shadow=0;fontColor=#FFFFFF;fontStyle=1;fontSize=5;labelBackgroundColor=none;glass=0;sketch=0;" parent="1" vertex="1">
          <mxGeometry x="630" y="410" width="20" height="30" as="geometry" />
        </mxCell>
        <mxCell id="03KjANhIFLuCmbNfHlnq-256" value="" style="whiteSpace=wrap;rounded=0;fillColor=#999999;strokeColor=default;shadow=0;fontColor=#FFFFFF;fontStyle=1;fontSize=5;labelBackgroundColor=none;glass=0;sketch=0;" parent="1" vertex="1">
          <mxGeometry x="800" y="410" width="60" height="30" as="geometry" />
        </mxCell>
        <mxCell id="03KjANhIFLuCmbNfHlnq-257" value="5ЕР" style="whiteSpace=wrap;rounded=0;fillColor=#12AAB5;strokeColor=default;shadow=0;fontColor=#FFFFFF;fontSize=10;labelBackgroundColor=none;glass=0;sketch=0;" parent="1" vertex="1">
          <mxGeometry x="860" y="410" width="120" height="30" as="geometry" />
        </mxCell>
        <mxCell id="03KjANhIFLuCmbNfHlnq-258" value="" style="whiteSpace=wrap;rounded=0;fillColor=#999999;strokeColor=default;shadow=0;fontColor=#FFFFFF;fontStyle=1;fontSize=5;labelBackgroundColor=none;glass=0;sketch=0;" parent="1" vertex="1">
          <mxGeometry x="980" y="410" width="100" height="30" as="geometry" />
        </mxCell>
        <mxCell id="03KjANhIFLuCmbNfHlnq-259" value="ПТП 1700" style="whiteSpace=wrap;rounded=0;fillColor=#12AAB5;strokeColor=default;shadow=1;fontColor=#FFFFFF;fontSize=10;labelBackgroundColor=none;glass=0;sketch=0;" parent="1" vertex="1">
          <mxGeometry x="1080" y="410" width="220" height="47" as="geometry" />
        </mxCell>
        <mxCell id="03KjANhIFLuCmbNfHlnq-261" value="" style="whiteSpace=wrap;rounded=0;fillColor=#999999;strokeColor=default;shadow=1;fontColor=#FFFFFF;fontStyle=1;fontSize=5;labelBackgroundColor=none;glass=0;sketch=0;" parent="1" vertex="1">
          <mxGeometry x="960" y="300" width="70" height="30" as="geometry" />
        </mxCell>
        <mxCell id="03KjANhIFLuCmbNfHlnq-262" value="6ЕР" style="whiteSpace=wrap;rounded=0;fillColor=#12AAB5;strokeColor=default;shadow=1;fontColor=#FFFFFF;fontSize=10;" parent="1" vertex="1">
          <mxGeometry x="1030" y="300" width="30" height="30" as="geometry" />
        </mxCell>
        <mxCell id="03KjANhIFLuCmbNfHlnq-263" value="" style="whiteSpace=wrap;rounded=0;fillColor=#999999;strokeColor=default;shadow=1;fontColor=#FFFFFF;fontStyle=1;fontSize=5;labelBackgroundColor=none;glass=0;sketch=0;" parent="1" vertex="1">
          <mxGeometry x="1060" y="300" width="10" height="30" as="geometry" />
        </mxCell>
        <mxCell id="03KjANhIFLuCmbNfHlnq-264" value="1ЕР" style="whiteSpace=wrap;rounded=0;fillColor=#12AAB5;strokeColor=default;shadow=1;fontColor=#FFFFFF;fontSize=10;" parent="1" vertex="1">
          <mxGeometry x="1070" y="300" width="50" height="30" as="geometry" />
        </mxCell>
        <mxCell id="03KjANhIFLuCmbNfHlnq-266" value="2ЕR" style="whiteSpace=wrap;rounded=0;fillColor=#12AAB5;strokeColor=default;shadow=1;fontColor=#FFFFFF;fontSize=10;" parent="1" vertex="1">
          <mxGeometry x="1250" y="300" width="60" height="30" as="geometry" />
        </mxCell>
        <mxCell id="03KjANhIFLuCmbNfHlnq-267" value="1АПМ" style="rounded=0;whiteSpace=wrap;html=1;shadow=0;glass=0;labelBackgroundColor=none;sketch=0;fontSize=10;strokeColor=default;fillColor=#999999;fontColor=#FFFFFF;" parent="1" vertex="1">
          <mxGeometry x="610" y="320" width="40" height="32.5" as="geometry" />
        </mxCell>
        <mxCell id="03KjANhIFLuCmbNfHlnq-273" value="1700" style="whiteSpace=wrap;rounded=0;fillColor=#999999;strokeColor=default;shadow=0;fontColor=#FFFFFF;fontStyle=1;fontSize=5;labelBackgroundColor=none;glass=0;sketch=0;" parent="1" vertex="1">
          <mxGeometry x="1000" y="397" width="20" height="13" as="geometry" />
        </mxCell>
        <mxCell id="03KjANhIFLuCmbNfHlnq-274" value="2800" style="whiteSpace=wrap;rounded=0;fillColor=#999999;strokeColor=default;shadow=0;fontColor=#FFFFFF;fontStyle=1;fontSize=5;labelBackgroundColor=none;glass=0;sketch=0;" parent="1" vertex="1">
          <mxGeometry x="700" y="397" width="20" height="13" as="geometry" />
        </mxCell>
        <mxCell id="03KjANhIFLuCmbNfHlnq-282" value="" style="endArrow=none;html=1;rounded=0;fontSize=10;" parent="1" edge="1">
          <mxGeometry width="50" height="50" relative="1" as="geometry">
            <mxPoint x="1360" y="340" as="sourcePoint" />
            <mxPoint x="1400" y="340" as="targetPoint" />
          </mxGeometry>
        </mxCell>
        <mxCell id="03KjANhIFLuCmbNfHlnq-283" value="" style="endArrow=none;html=1;rounded=0;fontSize=10;" parent="1" edge="1">
          <mxGeometry width="50" height="50" relative="1" as="geometry">
            <mxPoint x="1400" y="340" as="sourcePoint" />
            <mxPoint x="1400" y="350" as="targetPoint" />
          </mxGeometry>
        </mxCell>
        <mxCell id="03KjANhIFLuCmbNfHlnq-284" value="" style="endArrow=none;html=1;rounded=0;fontSize=10;" parent="1" edge="1">
          <mxGeometry width="50" height="50" relative="1" as="geometry">
            <mxPoint x="1400" y="350" as="sourcePoint" />
            <mxPoint x="1420" y="350" as="targetPoint" />
          </mxGeometry>
        </mxCell>
        <mxCell id="03KjANhIFLuCmbNfHlnq-285" value="" style="endArrow=none;html=1;rounded=0;fontSize=10;" parent="1" edge="1">
          <mxGeometry width="50" height="50" relative="1" as="geometry">
            <mxPoint x="1420" y="370" as="sourcePoint" />
            <mxPoint x="1420" y="350" as="targetPoint" />
          </mxGeometry>
        </mxCell>
        <mxCell id="03KjANhIFLuCmbNfHlnq-286" value="ПТП 2800" style="whiteSpace=wrap;rounded=0;fillColor=#12AAB5;strokeColor=default;shadow=0;fontColor=#FFFFFF;fontSize=10;labelBackgroundColor=none;glass=0;sketch=0;" parent="1" vertex="1">
          <mxGeometry x="720" y="440" width="70" height="30" as="geometry" />
        </mxCell>
        <mxCell id="03KjANhIFLuCmbNfHlnq-251" value="ЭТП-1" style="whiteSpace=wrap;rounded=0;fillColor=#12AAB5;strokeColor=default;shadow=1;fontColor=#FFFFFF;fontSize=10;labelBackgroundColor=none;glass=0;sketch=0;" parent="1" vertex="1">
          <mxGeometry x="730" y="463" width="70" height="30" as="geometry" />
        </mxCell>
        <mxCell id="03KjANhIFLuCmbNfHlnq-253" value="4ЕР" style="whiteSpace=wrap;rounded=0;fillColor=#12AAB5;strokeColor=default;shadow=1;fontColor=#FFFFFF;fontSize=10;" parent="1" vertex="1">
          <mxGeometry x="780" y="300" width="50" height="30" as="geometry" />
        </mxCell>
        <mxCell id="03KjANhIFLuCmbNfHlnq-260" value="" style="whiteSpace=wrap;rounded=0;fillColor=#999999;strokeColor=default;shadow=1;fontColor=#FFFFFF;fontStyle=1;fontSize=5;labelBackgroundColor=none;glass=0;sketch=0;" parent="1" vertex="1">
          <mxGeometry x="830" y="300" width="60" height="30" as="geometry" />
        </mxCell>
        <mxCell id="BHqK-aXvtFynMMr_jnio-10" value="5ПСУ" style="whiteSpace=wrap;rounded=0;shadow=0;fillColor=#10739E;strokeColor=default;fontColor=#FFFFFF;fontStyle=0;fontSize=10;" vertex="1" parent="1">
          <mxGeometry x="830" y="80" width="50" height="30" as="geometry" />
        </mxCell>
        <mxCell id="BHqK-aXvtFynMMr_jnio-11" value="5 ПУ" style="whiteSpace=wrap;rounded=0;fillColor=#999999;strokeColor=default;shadow=0;fontColor=#FFFFFF;fontStyle=0;fontSize=9;" vertex="1" parent="1">
          <mxGeometry x="930" y="280" width="30" height="20" as="geometry" />
        </mxCell>
        <mxCell id="BHqK-aXvtFynMMr_jnio-18" value="" style="rounded=0;whiteSpace=wrap;html=1;fontSize=10;strokeColor=#000000;fillColor=#999999;shadow=1;" vertex="1" parent="1">
          <mxGeometry x="1465" y="300" width="11" height="200" as="geometry" />
        </mxCell>
        <mxCell id="BHqK-aXvtFynMMr_jnio-19" value="" style="endArrow=none;html=1;rounded=0;fontSize=10;entryX=-0.032;entryY=0.35;entryDx=0;entryDy=0;entryPerimeter=0;" edge="1" parent="1" target="BHqK-aXvtFynMMr_jnio-18">
          <mxGeometry width="50" height="50" relative="1" as="geometry">
            <mxPoint x="1420" y="370" as="sourcePoint" />
            <mxPoint x="1460" y="370" as="targetPoint" />
          </mxGeometry>
        </mxCell>
        <mxCell id="BHqK-aXvtFynMMr_jnio-20" value="" style="whiteSpace=wrap;rounded=0;fillColor=#999999;strokeColor=default;shadow=0;fontColor=#FFFFFF;fontStyle=1;fontSize=5;labelBackgroundColor=none;glass=0;sketch=0;" vertex="1" parent="1">
          <mxGeometry x="1360" y="300" width="20" height="30" as="geometry" />
        </mxCell>
        <mxCell id="BHqK-aXvtFynMMr_jnio-21" value="" style="whiteSpace=wrap;rounded=0;fillColor=#999999;strokeColor=default;shadow=0;fontColor=#FFFFFF;fontStyle=1;fontSize=5;labelBackgroundColor=none;glass=0;sketch=0;" vertex="1" parent="1">
          <mxGeometry x="1380" y="300" width="10" height="30" as="geometry" />
        </mxCell>
        <mxCell id="BHqK-aXvtFynMMr_jnio-24" value="" style="whiteSpace=wrap;rounded=0;fillColor=#999999;strokeColor=default;shadow=0;fontColor=#FFFFFF;fontStyle=1;fontSize=5;labelBackgroundColor=none;glass=0;sketch=0;" vertex="1" parent="1">
          <mxGeometry x="1420" y="300" width="45" height="70" as="geometry" />
        </mxCell>
        <mxCell id="BHqK-aXvtFynMMr_jnio-25" value="" style="whiteSpace=wrap;rounded=0;fillColor=#999999;strokeColor=default;shadow=0;fontColor=#FFFFFF;fontStyle=1;fontSize=5;labelBackgroundColor=none;glass=0;sketch=0;" vertex="1" parent="1">
          <mxGeometry x="1420" y="280" width="10" height="20" as="geometry" />
        </mxCell>
        <mxCell id="BHqK-aXvtFynMMr_jnio-26" value="" style="whiteSpace=wrap;rounded=0;fillColor=#999999;strokeColor=default;shadow=0;fontColor=#FFFFFF;fontStyle=1;fontSize=5;labelBackgroundColor=none;glass=0;sketch=0;" vertex="1" parent="1">
          <mxGeometry x="1430" y="280" width="10" height="20" as="geometry" />
        </mxCell>
        <mxCell id="BHqK-aXvtFynMMr_jnio-27" value="11ПСУ" style="whiteSpace=wrap;rounded=0;shadow=0;fillColor=#10739E;strokeColor=default;fontColor=#FFFFFF;fontStyle=0;fontSize=10;" vertex="1" parent="1">
          <mxGeometry x="1460" y="160" width="100" height="20" as="geometry" />
        </mxCell>
        <mxCell id="BHqK-aXvtFynMMr_jnio-28" value="10ПСУ" style="whiteSpace=wrap;rounded=0;shadow=0;fillColor=#10739E;strokeColor=default;fontColor=#FFFFFF;fontStyle=0;fontSize=10;" vertex="1" parent="1">
          <mxGeometry x="1240" y="160" width="100" height="20" as="geometry" />
        </mxCell>
        <mxCell id="BHqK-aXvtFynMMr_jnio-30" value="" style="whiteSpace=wrap;rounded=0;fillColor=#999999;strokeColor=default;shadow=0;fontColor=#FFFFFF;fontStyle=1;fontSize=5;labelBackgroundColor=none;glass=0;sketch=0;" vertex="1" parent="1">
          <mxGeometry x="1300" y="410" width="60" height="10" as="geometry" />
        </mxCell>
        <mxCell id="BHqK-aXvtFynMMr_jnio-33" value="" style="shape=card;whiteSpace=wrap;html=1;shadow=0;fontSize=10;rotation=-180;size=40;fillColor=#999999;" vertex="1" parent="1">
          <mxGeometry x="1300" y="420" width="60" height="80" as="geometry" />
        </mxCell>
        <mxCell id="BHqK-aXvtFynMMr_jnio-34" value="" style="whiteSpace=wrap;rounded=0;fillColor=#999999;strokeColor=default;shadow=0;fontColor=#FFFFFF;fontStyle=0;fontSize=9;" vertex="1" parent="1">
          <mxGeometry x="1430" y="160" width="30" height="20" as="geometry" />
        </mxCell>
        <mxCell id="BHqK-aXvtFynMMr_jnio-36" value="19 ПУ" style="whiteSpace=wrap;rounded=0;fillColor=#999999;strokeColor=default;shadow=0;fontColor=#FFFFFF;fontStyle=0;fontSize=9;" vertex="1" parent="1">
          <mxGeometry x="1120" y="160" width="30" height="20" as="geometry" />
        </mxCell>
        <mxCell id="BHqK-aXvtFynMMr_jnio-37" value="18 ПУ" style="whiteSpace=wrap;rounded=0;fillColor=#999999;strokeColor=default;shadow=0;fontColor=#FFFFFF;fontStyle=0;fontSize=9;" vertex="1" parent="1">
          <mxGeometry x="1170" y="160" width="30" height="20" as="geometry" />
        </mxCell>
        <mxCell id="BHqK-aXvtFynMMr_jnio-38" value="2ЭП" style="whiteSpace=wrap;rounded=0;shadow=1;fillColor=#10739E;strokeColor=default;fontColor=#FFFFFF;fontStyle=0;fontSize=10;" vertex="1" parent="1">
          <mxGeometry x="1980" y="422" width="200" height="35" as="geometry" />
        </mxCell>
        <mxCell id="BHqK-aXvtFynMMr_jnio-39" value="4ЭП" style="whiteSpace=wrap;rounded=0;shadow=1;fillColor=#10739E;strokeColor=default;fontColor=#FFFFFF;fontStyle=0;fontSize=10;" vertex="1" parent="1">
          <mxGeometry x="2020" y="305" width="60" height="35" as="geometry" />
        </mxCell>
        <mxCell id="BHqK-aXvtFynMMr_jnio-40" value="5МП" style="whiteSpace=wrap;rounded=0;shadow=1;fillColor=#10739E;strokeColor=default;fontColor=#FFFFFF;fontStyle=0;fontSize=10;" vertex="1" parent="1">
          <mxGeometry x="1753" y="416" width="100" height="35" as="geometry" />
        </mxCell>
        <mxCell id="BHqK-aXvtFynMMr_jnio-41" value="" style="whiteSpace=wrap;rounded=0;fillColor=#999999;strokeColor=default;shadow=0;fontColor=#FFFFFF;fontStyle=1;fontSize=5;labelBackgroundColor=none;glass=0;sketch=0;" vertex="1" parent="1">
          <mxGeometry x="1620" y="550" width="30" height="20" as="geometry" />
        </mxCell>
        <mxCell id="BHqK-aXvtFynMMr_jnio-42" value="Склад" style="whiteSpace=wrap;rounded=0;fillColor=#999999;strokeColor=default;shadow=0;fontColor=#FFFFFF;fontStyle=0;fontSize=10;labelBackgroundColor=none;glass=0;sketch=0;" vertex="1" parent="1">
          <mxGeometry x="1650" y="540" width="50" height="30" as="geometry" />
        </mxCell>
        <mxCell id="BHqK-aXvtFynMMr_jnio-17" value="АБК ЛПЦ-1" style="rounded=0;whiteSpace=wrap;html=1;fontSize=10;fillColor=#999999;fontColor=#FFFFFF;" vertex="1" parent="1">
          <mxGeometry x="1380" y="500" width="240" height="70" as="geometry" />
        </mxCell>
        <mxCell id="BHqK-aXvtFynMMr_jnio-43" value="8ПСУ" style="whiteSpace=wrap;rounded=0;shadow=0;fillColor=#10739E;strokeColor=default;fontColor=#FFFFFF;fontStyle=0;fontSize=10;" vertex="1" parent="1">
          <mxGeometry x="885" y="-120" width="120" height="20" as="geometry" />
        </mxCell>
        <mxCell id="BHqK-aXvtFynMMr_jnio-44" value="7ПСУ" style="whiteSpace=wrap;rounded=0;shadow=0;fillColor=#10739E;strokeColor=default;fontColor=#FFFFFF;fontStyle=0;fontSize=10;" vertex="1" parent="1">
          <mxGeometry x="720" y="-120" width="40" height="20" as="geometry" />
        </mxCell>
        <mxCell id="BHqK-aXvtFynMMr_jnio-47" value="4 ПУ" style="whiteSpace=wrap;rounded=0;fillColor=#999999;strokeColor=default;shadow=0;fontColor=#FFFFFF;fontStyle=0;fontSize=9;" vertex="1" parent="1">
          <mxGeometry x="610" y="190" width="30" height="60" as="geometry" />
        </mxCell>
        <mxCell id="BHqK-aXvtFynMMr_jnio-48" value="4ПСУ" style="whiteSpace=wrap;rounded=0;shadow=0;fillColor=#10739E;strokeColor=default;fontColor=#FFFFFF;fontStyle=0;fontSize=10;" vertex="1" parent="1">
          <mxGeometry x="600" y="80" width="40" height="30" as="geometry" />
        </mxCell>
        <mxCell id="BHqK-aXvtFynMMr_jnio-49" value="6ПСУ" style="whiteSpace=wrap;rounded=0;shadow=0;fillColor=#10739E;strokeColor=default;fontColor=#FFFFFF;fontStyle=0;fontSize=10;" vertex="1" parent="1">
          <mxGeometry x="530" y="-120" width="50" height="30" as="geometry" />
        </mxCell>
        <mxCell id="BHqK-aXvtFynMMr_jnio-50" value="6 ПУ" style="whiteSpace=wrap;rounded=0;fillColor=#999999;strokeColor=default;shadow=0;fontColor=#FFFFFF;fontStyle=0;fontSize=9;" vertex="1" parent="1">
          <mxGeometry x="585" y="-110" width="30" height="20" as="geometry" />
        </mxCell>
        <mxCell id="BHqK-aXvtFynMMr_jnio-53" value="ПУ 5А" style="whiteSpace=wrap;rounded=0;fillColor=#999999;strokeColor=default;shadow=0;fontColor=#FFFFFF;fontStyle=0;fontSize=9;" vertex="1" parent="1">
          <mxGeometry x="720" y="80" width="30" height="20" as="geometry" />
        </mxCell>
        <mxCell id="BHqK-aXvtFynMMr_jnio-54" value="3ПУ" style="whiteSpace=wrap;rounded=0;fillColor=#999999;strokeColor=default;shadow=0;fontColor=#FFFFFF;fontStyle=0;fontSize=9;" vertex="1" parent="1">
          <mxGeometry x="510" y="80" width="50" height="20" as="geometry" />
        </mxCell>
        <mxCell id="BHqK-aXvtFynMMr_jnio-55" value="ПУ-8" style="whiteSpace=wrap;rounded=0;fillColor=#999999;strokeColor=default;shadow=0;fontColor=#FFFFFF;fontStyle=0;fontSize=9;" vertex="1" parent="1">
          <mxGeometry x="480" y="740" width="30" height="20" as="geometry" />
        </mxCell>
        <mxCell id="BHqK-aXvtFynMMr_jnio-56" value="ПУ-12" style="whiteSpace=wrap;rounded=0;fillColor=#999999;strokeColor=default;shadow=0;fontColor=#FFFFFF;fontStyle=0;fontSize=9;" vertex="1" parent="1">
          <mxGeometry x="550" y="740" width="30" height="20" as="geometry" />
        </mxCell>
        <mxCell id="BHqK-aXvtFynMMr_jnio-57" value="ПУ-9" style="whiteSpace=wrap;rounded=0;fillColor=#999999;strokeColor=default;shadow=0;fontColor=#FFFFFF;fontStyle=0;fontSize=9;" vertex="1" parent="1">
          <mxGeometry x="585" y="740" width="30" height="20" as="geometry" />
        </mxCell>
        <mxCell id="BHqK-aXvtFynMMr_jnio-58" value="ПУ-10" style="whiteSpace=wrap;rounded=0;fillColor=#999999;strokeColor=default;shadow=0;fontColor=#FFFFFF;fontStyle=0;fontSize=9;" vertex="1" parent="1">
          <mxGeometry x="640" y="740" width="30" height="20" as="geometry" />
        </mxCell>
        <mxCell id="BHqK-aXvtFynMMr_jnio-61" value="ПСУ2А" style="whiteSpace=wrap;rounded=0;shadow=0;fillColor=#10739E;strokeColor=default;fontColor=#FFFFFF;fontStyle=0;fontSize=10;" vertex="1" parent="1">
          <mxGeometry x="320" y="-10" width="40" height="30" as="geometry" />
        </mxCell>
        <mxCell id="BHqK-aXvtFynMMr_jnio-62" value="2 ПСУ" style="whiteSpace=wrap;rounded=0;shadow=0;fillColor=#10739E;strokeColor=default;fontColor=#FFFFFF;fontStyle=0;fontSize=10;" vertex="1" parent="1">
          <mxGeometry x="320" y="80" width="80" height="20" as="geometry" />
        </mxCell>
        <mxCell id="BHqK-aXvtFynMMr_jnio-63" value="ПУ-1А" style="whiteSpace=wrap;rounded=0;fillColor=#999999;strokeColor=default;shadow=0;fontColor=#FFFFFF;fontStyle=0;fontSize=9;" vertex="1" parent="1">
          <mxGeometry x="460" y="85" width="30" height="20" as="geometry" />
        </mxCell>
        <mxCell id="BHqK-aXvtFynMMr_jnio-65" value="ПСУ-2Б" style="whiteSpace=wrap;rounded=0;shadow=0;fillColor=#10739E;strokeColor=default;fontColor=#FFFFFF;fontStyle=0;fontSize=10;" vertex="1" parent="1">
          <mxGeometry x="270" y="80" width="40" height="30" as="geometry" />
        </mxCell>
        <mxCell id="BHqK-aXvtFynMMr_jnio-66" value="ПУ10" style="whiteSpace=wrap;rounded=0;fillColor=#999999;strokeColor=default;shadow=0;fontColor=#FFFFFF;fontStyle=0;fontSize=8;" vertex="1" parent="1">
          <mxGeometry x="1240" y="-80" width="20" height="20" as="geometry" />
        </mxCell>
        <mxCell id="BHqK-aXvtFynMMr_jnio-67" value="ПСУ НПР" style="whiteSpace=wrap;rounded=0;shadow=0;fillColor=#10739E;strokeColor=default;fontColor=#FFFFFF;fontStyle=0;fontSize=10;" vertex="1" parent="1">
          <mxGeometry x="1500" y="140" width="60" height="20" as="geometry" />
        </mxCell>
        <mxCell id="BHqK-aXvtFynMMr_jnio-68" value="ПУ НПР" style="whiteSpace=wrap;rounded=0;fillColor=#999999;strokeColor=default;shadow=0;fontColor=#FFFFFF;fontStyle=0;fontSize=9;" vertex="1" parent="1">
          <mxGeometry x="1495" y="-100" width="30" height="30" as="geometry" />
        </mxCell>
        <mxCell id="BHqK-aXvtFynMMr_jnio-69" value="ПУ 21А" style="whiteSpace=wrap;rounded=0;fillColor=#999999;strokeColor=default;shadow=0;fontColor=#FFFFFF;fontStyle=0;fontSize=9;" vertex="1" parent="1">
          <mxGeometry x="1600" y="-180" width="42" height="20" as="geometry" />
        </mxCell>
        <mxCell id="BHqK-aXvtFynMMr_jnio-70" value="ПУ 21Б" style="whiteSpace=wrap;rounded=0;fillColor=#999999;strokeColor=default;shadow=0;fontColor=#FFFFFF;fontStyle=0;fontSize=9;" vertex="1" parent="1">
          <mxGeometry x="1550" y="-220" width="40" height="20" as="geometry" />
        </mxCell>
        <mxCell id="BHqK-aXvtFynMMr_jnio-73" value="ПУ ГМ" style="whiteSpace=wrap;rounded=0;fillColor=#999999;strokeColor=default;shadow=0;fontColor=#FFFFFF;fontStyle=0;fontSize=9;" vertex="1" parent="1">
          <mxGeometry x="818" y="-120" width="42" height="20" as="geometry" />
        </mxCell>
        <mxCell id="BHqK-aXvtFynMMr_jnio-74" value="ПУ ГН" style="whiteSpace=wrap;rounded=0;fillColor=#999999;strokeColor=default;shadow=0;fontColor=#FFFFFF;fontStyle=0;fontSize=9;" vertex="1" parent="1">
          <mxGeometry x="1018" y="-120" width="22" height="20" as="geometry" />
        </mxCell>
        <mxCell id="BHqK-aXvtFynMMr_jnio-75" value="ПУ УЗК" style="whiteSpace=wrap;rounded=0;fillColor=#999999;strokeColor=default;shadow=0;fontColor=#FFFFFF;fontStyle=0;fontSize=9;" vertex="1" parent="1">
          <mxGeometry x="1360" y="-115" width="30" height="30" as="geometry" />
        </mxCell>
        <mxCell id="BHqK-aXvtFynMMr_jnio-76" value="ПУ К" style="whiteSpace=wrap;rounded=0;fillColor=#999999;strokeColor=default;shadow=0;fontColor=#FFFFFF;fontStyle=0;fontSize=9;" vertex="1" parent="1">
          <mxGeometry x="1590" y="-80" width="30" height="30" as="geometry" />
        </mxCell>
        <mxCell id="BHqK-aXvtFynMMr_jnio-77" value="ПУ 14" style="whiteSpace=wrap;rounded=0;fillColor=#999999;strokeColor=default;shadow=0;fontColor=#FFFFFF;fontStyle=0;fontSize=9;" vertex="1" parent="1">
          <mxGeometry x="1710" y="40" width="32" height="10" as="geometry" />
        </mxCell>
        <mxCell id="BHqK-aXvtFynMMr_jnio-78" value="ПУ 20-1" style="whiteSpace=wrap;rounded=0;fillColor=#999999;strokeColor=default;shadow=0;fontColor=#FFFFFF;fontStyle=0;fontSize=9;" vertex="1" parent="1">
          <mxGeometry x="1642" y="80" width="26" height="25" as="geometry" />
        </mxCell>
        <mxCell id="BHqK-aXvtFynMMr_jnio-79" value="20А ПУ" style="whiteSpace=wrap;rounded=0;fillColor=#999999;strokeColor=default;shadow=0;fontColor=#FFFFFF;fontStyle=0;fontSize=9;" vertex="1" parent="1">
          <mxGeometry x="1740" y="160" width="42" height="40" as="geometry" />
        </mxCell>
        <mxCell id="BHqK-aXvtFynMMr_jnio-80" value="6ЭМП" style="whiteSpace=wrap;rounded=0;shadow=0;fillColor=#10739E;strokeColor=default;fontColor=#FFFFFF;fontStyle=0;fontSize=10;" vertex="1" parent="1">
          <mxGeometry x="1656" y="160" width="84" height="35" as="geometry" />
        </mxCell>
        <mxCell id="BHqK-aXvtFynMMr_jnio-81" value="20ПУ" style="whiteSpace=wrap;rounded=0;fillColor=#999999;strokeColor=default;shadow=0;fontColor=#FFFFFF;fontStyle=0;fontSize=9;" vertex="1" parent="1">
          <mxGeometry x="1570" y="180" width="30" height="20" as="geometry" />
        </mxCell>
        <mxCell id="BHqK-aXvtFynMMr_jnio-82" value="20ПУ1" style="whiteSpace=wrap;rounded=0;fillColor=#999999;strokeColor=default;shadow=0;fontColor=#FFFFFF;fontStyle=0;fontSize=9;" vertex="1" parent="1">
          <mxGeometry x="1570" y="150" width="32" height="20" as="geometry" />
        </mxCell>
        <mxCell id="BHqK-aXvtFynMMr_jnio-84" value="ПУ 2 стол" style="whiteSpace=wrap;rounded=0;fillColor=#999999;strokeColor=default;shadow=0;fontColor=#FFFFFF;fontStyle=0;fontSize=9;" vertex="1" parent="1">
          <mxGeometry x="1626" y="-115" width="30" height="30" as="geometry" />
        </mxCell>
        <mxCell id="BHqK-aXvtFynMMr_jnio-85" value="ПУ-22" style="whiteSpace=wrap;rounded=0;fillColor=#999999;strokeColor=default;shadow=0;fontColor=#FFFFFF;fontStyle=0;fontSize=9;" vertex="1" parent="1">
          <mxGeometry x="1810" y="70" width="30" height="50" as="geometry" />
        </mxCell>
        <mxCell id="BHqK-aXvtFynMMr_jnio-86" value="12 ПСУ" style="whiteSpace=wrap;rounded=0;shadow=0;fillColor=#10739E;strokeColor=default;fontColor=#FFFFFF;fontStyle=0;fontSize=10;" vertex="1" parent="1">
          <mxGeometry x="1720" y="-230" width="80" height="30" as="geometry" />
        </mxCell>
        <mxCell id="BHqK-aXvtFynMMr_jnio-87" value="16 ПСУ" style="whiteSpace=wrap;rounded=0;shadow=0;fillColor=#10739E;strokeColor=default;fontColor=#FFFFFF;fontStyle=0;fontSize=10;" vertex="1" parent="1">
          <mxGeometry x="1682" y="-220" width="38" height="20" as="geometry" />
        </mxCell>
      </root>
    </mxGraphModel>
  </diagram>
</mxfile>
